<svg xmlns="http://www.w3.org/2000/svg" width="40" height="40" viewBox="0 0 40 40">
    <defs>
        <linearGradient id="zfoepa80sa" x1="50%" x2="50%" y1="100%" y2="0%">
            <stop offset="0%" stop-color="#F9F047"/>
            <stop offset="100%" stop-color="#0FD850"/>
        </linearGradient>
    </defs>
    <g fill="none" fill-rule="evenodd">
        <g>
            <g>
                <g>
                    <g transform="translate(-40 -304) translate(16 112) translate(24 192)">
                        <circle cx="20" cy="20" r="20" fill="url(#zfoepa80sa)"/>
                        <path stroke="#FFF" stroke-linecap="round" stroke-linejoin="round" stroke-width="3" d="M9 22.429C9 24.953 11.189 27 13.889 27h11C28.264 27 31 24.442 31 21.286c0-3.156-2.736-5.715-6.111-5.715-.04 0-.082 0-.122.002C24.2 12.963 21.735 11 18.777 11c-3.374 0-6.11 2.558-6.11 5.714 0 .43.05.85.147 1.254C10.631 18.426 9 20.249 9 22.428z"/>
                    </g>
                </g>
            </g>
        </g>
    </g>
</svg>
