<svg xmlns="http://www.w3.org/2000/svg" width="40" height="40" viewBox="0 0 40 40">
    <defs>
        <linearGradient id="yliw0pghfa" x1="100%" x2="0%" y1="75.18%" y2="24.907%">
            <stop offset="0%" stop-color="#3D3393"/>
            <stop offset="32.733%" stop-color="#2B76B9"/>
            <stop offset="65.905%" stop-color="#2CACD1"/>
            <stop offset="100%" stop-color="#35EB93"/>
        </linearGradient>
    </defs>
    <g fill="none" fill-rule="evenodd">
        <g>
            <g>
                <g>
                    <g transform="translate(-40 -248) translate(16 112) translate(24 136)">
                        <circle cx="20" cy="20" r="20" fill="url(#yliw0pghfa)"/>
                        <path stroke="#FFF" stroke-linecap="round" stroke-linejoin="round" stroke-width="3" d="M20 12c-3.314 0-6 1.79-6 4s2.686 4 6 4 6 1.79 6 4-2.686 4-6 4m0-16c2.22 0 4.16.804 5.197 2M20 12v-2m0 2v16m0 0v2m0-2c-2.22 0-4.16-.804-5.197-2"/>
                    </g>
                </g>
            </g>
        </g>
    </g>
</svg>
