<svg xmlns="http://www.w3.org/2000/svg" xmlns:xlink="http://www.w3.org/1999/xlink" width="40" height="40" viewBox="0 0 40 40">
    <defs>
        <radialGradient id="uaskh803dc" cx="48.877%" cy="-59.339%" r="129.947%" fx="48.877%" fy="-59.339%">
            <stop offset="0%" stop-color="#FFF" stop-opacity=".5"/>
            <stop offset="100%" stop-opacity=".5"/>
        </radialGradient>
        <radialGradient id="582nnlsosd" cx="50%" cy="0%" r="142.876%" fx="50%" fy="0%" gradientTransform="matrix(-.02445 .9997 -1.5253 -.0373 .512 -.5)">
            <stop offset="0%" stop-color="#FFF" stop-opacity=".5"/>
            <stop offset="100%" stop-opacity=".5"/>
        </radialGradient>
        <linearGradient id="7dgfceopbb" x1="50%" x2="50%" y1="0%" y2="100%">
            <stop offset="0%" stop-color="#FFF" stop-opacity=".5"/>
            <stop offset="100%" stop-opacity=".5"/>
        </linearGradient>
        <circle id="m5rr3qgppa" cx="20" cy="20" r="20"/>
    </defs>
    <g fill="none" fill-rule="evenodd">
        <g>
            <g>
                <g>
                    <g>
                        <g transform="translate(-40 -360) translate(16 112) translate(24 248)">
                            <use fill="#989898" xlink:href="#m5rr3qgppa"/>
                            <use fill="url(#7dgfceopbb)" fill-opacity=".3" style="mix-blend-mode:multiply" xlink:href="#m5rr3qgppa"/>
                            <use fill="url(#uaskh803dc)" fill-opacity=".8" style="mix-blend-mode:multiply" xlink:href="#m5rr3qgppa"/>
                            <use fill="url(#582nnlsosd)" fill-opacity=".4" style="mix-blend-mode:multiply" xlink:href="#m5rr3qgppa"/>
                        </g>
                        <path stroke="#FFF" stroke-linecap="round" stroke-linejoin="round" stroke-width="3" d="M30 22.819c-1.135.456-2.374.707-3.672.707-5.442 0-9.854-4.412-9.854-9.854 0-1.298.251-2.537.707-3.672C13.558 11.456 11 15.003 11 19.146 11 24.588 15.412 29 20.854 29c4.143 0 7.69-2.558 9.146-6.181z" transform="translate(-40 -360) translate(16 112) translate(24 248)"/>
                    </g>
                </g>
            </g>
        </g>
    </g>
</svg>
