<svg xmlns="http://www.w3.org/2000/svg" width="40" height="40" viewBox="0 0 40 40">
    <defs>
        <linearGradient id="ydapxwxvia" x1="0%" x2="100%" y1="50%" y2="50%">
            <stop offset="0%" stop-color="#FF4E50"/>
            <stop offset="100%" stop-color="#F9D423"/>
        </linearGradient>
    </defs>
    <g fill="none" fill-rule="evenodd">
        <g>
            <g>
                <g>
                    <g transform="translate(-40 -552) translate(16 112) translate(24 440)">
                        <circle cx="20" cy="20" r="20" fill="url(#ydapxwxvia)"/>
                        <path stroke="#FFF" stroke-linecap="round" stroke-linejoin="round" stroke-width="3" d="M27.778 12.222l-4.321 4.321m0 6.914l4.321 4.321M16.543 16.543l-4.321-4.321m4.321 11.235l-4.321 4.321M31 20c0 6.075-4.925 11-11 11S9 26.075 9 20 13.925 9 20 9s11 4.925 11 11zm-6.111 0c0 2.7-2.189 4.889-4.889 4.889S15.111 22.7 15.111 20 17.3 15.111 20 15.111 24.889 17.3 24.889 20z"/>
                    </g>
                </g>
            </g>
        </g>
    </g>
</svg>
