<svg xmlns="http://www.w3.org/2000/svg" width="24" height="22" viewBox="0 0 24 22">
    <g fill="none" fill-rule="evenodd">
        <g fill="#FFD600">
            <g>
                <g>
                    <g>
                        <path d="M9.356 2.038c1.16-2.05 4.128-2.05 5.288 0l8.462 14.966c1.137 2.01-.324 4.496-2.643 4.496H3.537c-2.32 0-3.78-2.485-2.643-4.496L9.356 2.038zM13.5 17.5c0 .828-.671 1.5-1.5 1.5-.828 0-1.5-.672-1.5-1.5S11.172 16 12 16c.829 0 1.5.672 1.5 1.5zM12 5.5c-.828 0-1.5.761-1.5 1.7v5.1c0 .939.672 1.7 1.5 1.7.829 0 1.5-.761 1.5-1.7V7.2c0-.939-.671-1.7-1.5-1.7z" transform="translate(-287 -201) translate(16 112) translate(24 80) translate(247 9)"/>
                    </g>
                </g>
            </g>
        </g>
    </g>
</svg>
